<mxfile host="app.diagrams.net" agent="Mozilla/5.0 (Windows NT 10.0; Win64; x64) AppleWebKit/537.36 (KHTML, like Gecko) Chrome/128.0.0.0 Safari/537.36" version="24.7.10">
  <diagram name="Страница — 1" id="QBu3HS0jTqn3dDy2S9eS">
    <mxGraphModel dx="1050" dy="1699" grid="1" gridSize="10" guides="1" tooltips="1" connect="1" arrows="1" fold="1" page="1" pageScale="1" pageWidth="827" pageHeight="1169" math="0" shadow="0">
      <root>
        <mxCell id="0" />
        <mxCell id="1" parent="0" />
        <mxCell id="Gj5WWWeuL491heqhPenn-37" style="edgeStyle=orthogonalEdgeStyle;rounded=0;orthogonalLoop=1;jettySize=auto;html=1;entryX=1;entryY=0.5;entryDx=0;entryDy=0;fillColor=#f5f5f5;strokeColor=#666666;" edge="1" parent="1" source="Gj5WWWeuL491heqhPenn-1" target="Gj5WWWeuL491heqhPenn-31">
          <mxGeometry relative="1" as="geometry">
            <Array as="points">
              <mxPoint x="440" y="-170" />
            </Array>
          </mxGeometry>
        </mxCell>
        <mxCell id="Gj5WWWeuL491heqhPenn-38" style="edgeStyle=orthogonalEdgeStyle;rounded=0;orthogonalLoop=1;jettySize=auto;html=1;entryX=0;entryY=0.5;entryDx=0;entryDy=0;fillColor=#e1d5e7;strokeColor=#9673a6;" edge="1" parent="1" source="Gj5WWWeuL491heqhPenn-1" target="Gj5WWWeuL491heqhPenn-33">
          <mxGeometry relative="1" as="geometry">
            <Array as="points">
              <mxPoint x="480" y="-170" />
            </Array>
          </mxGeometry>
        </mxCell>
        <mxCell id="Gj5WWWeuL491heqhPenn-43" style="edgeStyle=orthogonalEdgeStyle;rounded=0;orthogonalLoop=1;jettySize=auto;html=1;entryX=0.5;entryY=0;entryDx=0;entryDy=0;fillColor=#dae8fc;strokeColor=#6c8ebf;" edge="1" parent="1" source="Gj5WWWeuL491heqhPenn-1" target="Gj5WWWeuL491heqhPenn-42">
          <mxGeometry relative="1" as="geometry" />
        </mxCell>
        <mxCell id="Gj5WWWeuL491heqhPenn-1" value="&lt;font style=&quot;font-size: 17px;&quot;&gt;&lt;b style=&quot;&quot;&gt;Библиотека&lt;/b&gt;&lt;/font&gt;&lt;div style=&quot;font-size: 17px;&quot;&gt;&lt;font style=&quot;font-size: 17px;&quot;&gt;&lt;b&gt;&lt;span style=&quot;background-color: initial;&quot;&gt;музыки&lt;/span&gt;&lt;br&gt;&lt;/b&gt;&lt;/font&gt;&lt;/div&gt;&lt;div style=&quot;font-size: 17px;&quot;&gt;&lt;span style=&quot;background-color: initial;&quot;&gt;&lt;font style=&quot;font-size: 17px;&quot;&gt;&lt;b&gt;рок-музыки&lt;/b&gt;&lt;/font&gt;&lt;/span&gt;&lt;/div&gt;&lt;div style=&quot;font-size: 17px;&quot;&gt;&lt;span style=&quot;background-color: initial;&quot;&gt;&lt;font style=&quot;font-size: 17px;&quot;&gt;&lt;b style=&quot;&quot;&gt;небольшого сайта&lt;/b&gt;&lt;/font&gt;&lt;/span&gt;&lt;/div&gt;" style="ellipse;whiteSpace=wrap;html=1;fillColor=#dae8fc;strokeColor=#6c8ebf;" vertex="1" parent="1">
          <mxGeometry x="355" y="-390" width="210" height="160" as="geometry" />
        </mxCell>
        <mxCell id="Gj5WWWeuL491heqhPenn-11" style="edgeStyle=orthogonalEdgeStyle;rounded=0;orthogonalLoop=1;jettySize=auto;html=1;entryX=0;entryY=0;entryDx=0;entryDy=0;" edge="1" parent="1" source="Gj5WWWeuL491heqhPenn-2" target="Gj5WWWeuL491heqhPenn-7">
          <mxGeometry relative="1" as="geometry" />
        </mxCell>
        <mxCell id="Gj5WWWeuL491heqhPenn-12" style="edgeStyle=orthogonalEdgeStyle;rounded=0;orthogonalLoop=1;jettySize=auto;html=1;entryX=0;entryY=0;entryDx=0;entryDy=0;" edge="1" parent="1" source="Gj5WWWeuL491heqhPenn-2" target="Gj5WWWeuL491heqhPenn-6">
          <mxGeometry relative="1" as="geometry" />
        </mxCell>
        <mxCell id="Gj5WWWeuL491heqhPenn-13" style="edgeStyle=orthogonalEdgeStyle;rounded=0;orthogonalLoop=1;jettySize=auto;html=1;entryX=1;entryY=0;entryDx=0;entryDy=0;" edge="1" parent="1" source="Gj5WWWeuL491heqhPenn-2" target="Gj5WWWeuL491heqhPenn-5">
          <mxGeometry relative="1" as="geometry" />
        </mxCell>
        <mxCell id="Gj5WWWeuL491heqhPenn-2" value="Сортировка&amp;nbsp;&lt;div&gt;и&lt;/div&gt;&lt;div&gt;поиск&lt;/div&gt;" style="ellipse;whiteSpace=wrap;html=1;fillColor=#f5f5f5;fontColor=#333333;strokeColor=#666666;" vertex="1" parent="1">
          <mxGeometry x="170" y="210" width="120" height="80" as="geometry" />
        </mxCell>
        <mxCell id="Gj5WWWeuL491heqhPenn-26" style="edgeStyle=orthogonalEdgeStyle;rounded=0;orthogonalLoop=1;jettySize=auto;html=1;entryX=0.5;entryY=0;entryDx=0;entryDy=0;fillColor=#dae8fc;strokeColor=#6c8ebf;" edge="1" parent="1" source="Gj5WWWeuL491heqhPenn-3" target="Gj5WWWeuL491heqhPenn-25">
          <mxGeometry relative="1" as="geometry" />
        </mxCell>
        <mxCell id="Gj5WWWeuL491heqhPenn-3" value="Пользовательские&lt;div&gt;плейлисты&lt;/div&gt;" style="ellipse;whiteSpace=wrap;html=1;fillColor=#dae8fc;strokeColor=#6c8ebf;" vertex="1" parent="1">
          <mxGeometry x="620" y="90" width="120" height="80" as="geometry" />
        </mxCell>
        <mxCell id="Gj5WWWeuL491heqhPenn-4" value="Имя&amp;nbsp;&lt;div&gt;исполнителя&lt;/div&gt;" style="ellipse;whiteSpace=wrap;html=1;aspect=fixed;" vertex="1" parent="1">
          <mxGeometry x="40" y="260" width="80" height="80" as="geometry" />
        </mxCell>
        <mxCell id="Gj5WWWeuL491heqhPenn-5" value="Поджанр" style="ellipse;whiteSpace=wrap;html=1;aspect=fixed;" vertex="1" parent="1">
          <mxGeometry x="130" y="340" width="80" height="80" as="geometry" />
        </mxCell>
        <mxCell id="Gj5WWWeuL491heqhPenn-6" value="Название&lt;div&gt;альбома&lt;/div&gt;" style="ellipse;whiteSpace=wrap;html=1;aspect=fixed;" vertex="1" parent="1">
          <mxGeometry x="250" y="340" width="80" height="80" as="geometry" />
        </mxCell>
        <mxCell id="Gj5WWWeuL491heqhPenn-7" value="Название&lt;div&gt;(алфавитно)&lt;/div&gt;" style="ellipse;whiteSpace=wrap;html=1;aspect=fixed;" vertex="1" parent="1">
          <mxGeometry x="334" y="270" width="80" height="80" as="geometry" />
        </mxCell>
        <mxCell id="Gj5WWWeuL491heqhPenn-8" style="edgeStyle=orthogonalEdgeStyle;rounded=0;orthogonalLoop=1;jettySize=auto;html=1;entryX=0.98;entryY=0.23;entryDx=0;entryDy=0;entryPerimeter=0;" edge="1" parent="1" source="Gj5WWWeuL491heqhPenn-2" target="Gj5WWWeuL491heqhPenn-4">
          <mxGeometry relative="1" as="geometry" />
        </mxCell>
        <mxCell id="Gj5WWWeuL491heqhPenn-16" style="edgeStyle=orthogonalEdgeStyle;rounded=0;orthogonalLoop=1;jettySize=auto;html=1;entryX=0.5;entryY=0;entryDx=0;entryDy=0;fillColor=#dae8fc;strokeColor=#6c8ebf;" edge="1" parent="1" source="Gj5WWWeuL491heqhPenn-15" target="Gj5WWWeuL491heqhPenn-2">
          <mxGeometry relative="1" as="geometry" />
        </mxCell>
        <mxCell id="Gj5WWWeuL491heqhPenn-15" value="Рок-композиции" style="ellipse;whiteSpace=wrap;html=1;fillColor=#dae8fc;strokeColor=#6c8ebf;" vertex="1" parent="1">
          <mxGeometry x="170" y="90" width="120" height="80" as="geometry" />
        </mxCell>
        <mxCell id="Gj5WWWeuL491heqhPenn-20" style="edgeStyle=orthogonalEdgeStyle;rounded=0;orthogonalLoop=1;jettySize=auto;html=1;entryX=0.5;entryY=1;entryDx=0;entryDy=0;fillColor=#ffe6cc;strokeColor=#d79b00;" edge="1" parent="1" source="Gj5WWWeuL491heqhPenn-19" target="Gj5WWWeuL491heqhPenn-4">
          <mxGeometry relative="1" as="geometry" />
        </mxCell>
        <mxCell id="Gj5WWWeuL491heqhPenn-21" style="edgeStyle=orthogonalEdgeStyle;rounded=0;orthogonalLoop=1;jettySize=auto;html=1;entryX=0.5;entryY=1;entryDx=0;entryDy=0;fillColor=#ffe6cc;strokeColor=#d79b00;" edge="1" parent="1" source="Gj5WWWeuL491heqhPenn-19" target="Gj5WWWeuL491heqhPenn-6">
          <mxGeometry relative="1" as="geometry" />
        </mxCell>
        <mxCell id="Gj5WWWeuL491heqhPenn-22" style="edgeStyle=orthogonalEdgeStyle;rounded=0;orthogonalLoop=1;jettySize=auto;html=1;exitX=0.75;exitY=0;exitDx=0;exitDy=0;entryX=0.5;entryY=1;entryDx=0;entryDy=0;fillColor=#ffe6cc;strokeColor=#d79b00;" edge="1" parent="1" source="Gj5WWWeuL491heqhPenn-19" target="Gj5WWWeuL491heqhPenn-5">
          <mxGeometry relative="1" as="geometry" />
        </mxCell>
        <mxCell id="Gj5WWWeuL491heqhPenn-19" value="&lt;h1 style=&quot;margin-top: 0px;&quot;&gt;Группировка&lt;/h1&gt;&lt;p&gt;Данные разделы можно будет открыть как бы в отдельном окне, а не в общем списке композиций&lt;/p&gt;" style="text;html=1;whiteSpace=wrap;overflow=hidden;rounded=0;fillColor=#ffe6cc;strokeColor=#d79b00;" vertex="1" parent="1">
          <mxGeometry x="20" y="480" width="180" height="120" as="geometry" />
        </mxCell>
        <mxCell id="Gj5WWWeuL491heqhPenn-29" style="edgeStyle=orthogonalEdgeStyle;rounded=0;orthogonalLoop=1;jettySize=auto;html=1;exitX=0;exitY=1;exitDx=0;exitDy=0;entryX=1;entryY=0;entryDx=0;entryDy=0;" edge="1" parent="1" source="Gj5WWWeuL491heqhPenn-25" target="Gj5WWWeuL491heqhPenn-27">
          <mxGeometry relative="1" as="geometry" />
        </mxCell>
        <mxCell id="Gj5WWWeuL491heqhPenn-30" style="edgeStyle=orthogonalEdgeStyle;rounded=0;orthogonalLoop=1;jettySize=auto;html=1;exitX=1;exitY=1;exitDx=0;exitDy=0;entryX=0;entryY=0;entryDx=0;entryDy=0;" edge="1" parent="1" source="Gj5WWWeuL491heqhPenn-25" target="Gj5WWWeuL491heqhPenn-28">
          <mxGeometry relative="1" as="geometry" />
        </mxCell>
        <mxCell id="Gj5WWWeuL491heqhPenn-25" value="Поиск" style="ellipse;whiteSpace=wrap;html=1;fillColor=#f5f5f5;fontColor=#333333;strokeColor=#666666;" vertex="1" parent="1">
          <mxGeometry x="620" y="210" width="120" height="80" as="geometry" />
        </mxCell>
        <mxCell id="Gj5WWWeuL491heqhPenn-27" value="Название" style="ellipse;whiteSpace=wrap;html=1;aspect=fixed;" vertex="1" parent="1">
          <mxGeometry x="550" y="300" width="80" height="80" as="geometry" />
        </mxCell>
        <mxCell id="Gj5WWWeuL491heqhPenn-28" value="Поджанр" style="ellipse;whiteSpace=wrap;html=1;aspect=fixed;" vertex="1" parent="1">
          <mxGeometry x="730" y="300" width="80" height="80" as="geometry" />
        </mxCell>
        <mxCell id="Gj5WWWeuL491heqhPenn-39" style="edgeStyle=orthogonalEdgeStyle;rounded=0;orthogonalLoop=1;jettySize=auto;html=1;fillColor=#f5f5f5;strokeColor=#666666;" edge="1" parent="1" source="Gj5WWWeuL491heqhPenn-31" target="Gj5WWWeuL491heqhPenn-34">
          <mxGeometry relative="1" as="geometry" />
        </mxCell>
        <mxCell id="Gj5WWWeuL491heqhPenn-31" value="Пользователь" style="rounded=1;whiteSpace=wrap;html=1;fillColor=#f5f5f5;fontColor=#333333;strokeColor=#666666;" vertex="1" parent="1">
          <mxGeometry x="170" y="-200" width="120" height="60" as="geometry" />
        </mxCell>
        <mxCell id="Gj5WWWeuL491heqhPenn-46" style="edgeStyle=orthogonalEdgeStyle;rounded=0;orthogonalLoop=1;jettySize=auto;html=1;entryX=0.5;entryY=0;entryDx=0;entryDy=0;fillColor=#e1d5e7;strokeColor=#9673a6;" edge="1" parent="1" source="Gj5WWWeuL491heqhPenn-33" target="Gj5WWWeuL491heqhPenn-35">
          <mxGeometry relative="1" as="geometry">
            <Array as="points">
              <mxPoint x="690" y="-115" />
              <mxPoint x="580" y="-115" />
            </Array>
          </mxGeometry>
        </mxCell>
        <mxCell id="Gj5WWWeuL491heqhPenn-47" style="edgeStyle=orthogonalEdgeStyle;rounded=0;orthogonalLoop=1;jettySize=auto;html=1;entryX=1;entryY=0;entryDx=0;entryDy=0;fillColor=#e1d5e7;strokeColor=#9673a6;" edge="1" parent="1" source="Gj5WWWeuL491heqhPenn-33" target="Gj5WWWeuL491heqhPenn-34">
          <mxGeometry relative="1" as="geometry">
            <Array as="points">
              <mxPoint x="670" y="-130" />
              <mxPoint x="340" y="-130" />
              <mxPoint x="340" y="-75" />
            </Array>
          </mxGeometry>
        </mxCell>
        <mxCell id="Gj5WWWeuL491heqhPenn-33" value="Администратор" style="rounded=1;whiteSpace=wrap;html=1;fillColor=#e1d5e7;strokeColor=#9673a6;" vertex="1" parent="1">
          <mxGeometry x="620" y="-200" width="120" height="60" as="geometry" />
        </mxCell>
        <mxCell id="Gj5WWWeuL491heqhPenn-40" style="edgeStyle=orthogonalEdgeStyle;rounded=0;orthogonalLoop=1;jettySize=auto;html=1;entryX=0.5;entryY=0;entryDx=0;entryDy=0;fillColor=#f5f5f5;strokeColor=#666666;" edge="1" parent="1" source="Gj5WWWeuL491heqhPenn-34" target="Gj5WWWeuL491heqhPenn-15">
          <mxGeometry relative="1" as="geometry">
            <Array as="points">
              <mxPoint x="330" y="50" />
              <mxPoint x="230" y="50" />
            </Array>
          </mxGeometry>
        </mxCell>
        <mxCell id="Gj5WWWeuL491heqhPenn-41" style="edgeStyle=orthogonalEdgeStyle;rounded=0;orthogonalLoop=1;jettySize=auto;html=1;entryX=0.5;entryY=0;entryDx=0;entryDy=0;fillColor=#f5f5f5;strokeColor=#666666;" edge="1" parent="1" source="Gj5WWWeuL491heqhPenn-34" target="Gj5WWWeuL491heqhPenn-3">
          <mxGeometry relative="1" as="geometry">
            <Array as="points">
              <mxPoint x="350" y="50" />
              <mxPoint x="680" y="50" />
            </Array>
          </mxGeometry>
        </mxCell>
        <mxCell id="Gj5WWWeuL491heqhPenn-34" value="Просмотр" style="ellipse;whiteSpace=wrap;html=1;aspect=fixed;fillColor=#f5f5f5;fontColor=#333333;strokeColor=#666666;" vertex="1" parent="1">
          <mxGeometry x="290" y="-90" width="100" height="100" as="geometry" />
        </mxCell>
        <mxCell id="Gj5WWWeuL491heqhPenn-48" style="edgeStyle=orthogonalEdgeStyle;rounded=0;orthogonalLoop=1;jettySize=auto;html=1;fillColor=#e1d5e7;strokeColor=#9673a6;" edge="1" parent="1" source="Gj5WWWeuL491heqhPenn-35">
          <mxGeometry relative="1" as="geometry">
            <mxPoint x="680" y="90" as="targetPoint" />
          </mxGeometry>
        </mxCell>
        <mxCell id="Gj5WWWeuL491heqhPenn-49" style="edgeStyle=orthogonalEdgeStyle;rounded=0;orthogonalLoop=1;jettySize=auto;html=1;fillColor=#e1d5e7;strokeColor=#9673a6;" edge="1" parent="1" source="Gj5WWWeuL491heqhPenn-35">
          <mxGeometry relative="1" as="geometry">
            <mxPoint x="230" y="90" as="targetPoint" />
            <Array as="points">
              <mxPoint x="580" y="70" />
              <mxPoint x="231" y="70" />
            </Array>
          </mxGeometry>
        </mxCell>
        <mxCell id="Gj5WWWeuL491heqhPenn-35" value="Редакти&lt;span style=&quot;background-color: initial;&quot;&gt;рование&lt;/span&gt;" style="ellipse;whiteSpace=wrap;html=1;aspect=fixed;fillColor=#e1d5e7;strokeColor=#9673a6;" vertex="1" parent="1">
          <mxGeometry x="530" y="-90" width="100" height="100" as="geometry" />
        </mxCell>
        <mxCell id="Gj5WWWeuL491heqhPenn-44" style="edgeStyle=orthogonalEdgeStyle;rounded=0;orthogonalLoop=1;jettySize=auto;html=1;entryX=1;entryY=0.5;entryDx=0;entryDy=0;fillColor=#dae8fc;strokeColor=#6c8ebf;" edge="1" parent="1" source="Gj5WWWeuL491heqhPenn-42" target="Gj5WWWeuL491heqhPenn-15">
          <mxGeometry relative="1" as="geometry" />
        </mxCell>
        <mxCell id="Gj5WWWeuL491heqhPenn-45" style="edgeStyle=orthogonalEdgeStyle;rounded=0;orthogonalLoop=1;jettySize=auto;html=1;entryX=0;entryY=0.5;entryDx=0;entryDy=0;fillColor=#dae8fc;strokeColor=#6c8ebf;" edge="1" parent="1" source="Gj5WWWeuL491heqhPenn-42" target="Gj5WWWeuL491heqhPenn-3">
          <mxGeometry relative="1" as="geometry" />
        </mxCell>
        <mxCell id="Gj5WWWeuL491heqhPenn-42" value="Хранилище" style="rounded=1;whiteSpace=wrap;html=1;fillColor=#dae8fc;strokeColor=#6c8ebf;" vertex="1" parent="1">
          <mxGeometry x="400" y="100" width="120" height="60" as="geometry" />
        </mxCell>
      </root>
    </mxGraphModel>
  </diagram>
</mxfile>
